<svg width="39" height="41" viewBox="0 0 39 41" fill="none" xmlns="http://www.w3.org/2000/svg">
<path d="M35.3821 0.146447C35.1869 -0.0488155 34.8703 -0.0488155 34.675 0.146447L31.493 3.32843C31.2978 3.52369 31.2978 3.84027 31.493 4.03553C31.6883 4.2308 32.0049 4.2308 32.2001 4.03553L35.0286 1.20711L37.857 4.03553C38.0523 4.2308 38.3688 4.2308 38.5641 4.03553C38.7594 3.84027 38.7594 3.52369 38.5641 3.32843L35.3821 0.146447ZM0.0285645 40L0.0570893 40.4992C0.377463 40.4809 0.706178 40.4565 1.04254 40.4259L0.997229 39.928L0.951917 39.43C0.626449 39.4597 0.30893 39.4832 3.9557e-05 39.5008L0.0285645 40ZM2.93004 39.6925L3.00489 40.1869C3.63747 40.0911 4.28973 39.9748 4.95804 39.8367L4.85683 39.347L4.75561 38.8574C4.10462 38.9919 3.46994 39.1051 2.85518 39.1982L2.93004 39.6925ZM6.75149 38.9054L6.87701 39.3894C7.50105 39.2276 8.13541 39.0471 8.77743 38.8469L8.62864 38.3696L8.47984 37.8923C7.85338 38.0875 7.23455 38.2636 6.62597 38.4214L6.75149 38.9054ZM10.4797 37.7436L10.6511 38.2133C11.2592 37.9913 11.8717 37.7516 12.4866 37.4932L12.2929 37.0322L12.0992 36.5713C11.4993 36.8233 10.9016 37.0573 10.3082 37.2739L10.4797 37.7436ZM14.0721 36.2336L14.2879 36.6847C14.8753 36.4037 15.463 36.1052 16.0492 35.7884L15.8115 35.3485L15.5737 34.9086C15.0023 35.2174 14.4293 35.5085 13.8564 35.7825L14.0721 36.2336ZM17.5051 34.3775L17.7647 34.8048C18.3227 34.4659 18.8777 34.1094 19.4279 33.735L19.1466 33.3216L18.8653 32.9082C18.3296 33.2728 17.7891 33.6199 17.2455 33.9502L17.5051 34.3775ZM20.7287 32.1829L21.0314 32.5808C21.5512 32.1854 22.0652 31.7726 22.5718 31.3419L22.248 30.961L21.9241 30.58C21.4315 30.9987 20.9316 31.4002 20.4259 31.785L20.7287 32.1829ZM23.6984 29.6576L24.0428 30.0202C24.5166 29.5701 24.9822 29.103 25.4383 28.6182L25.0742 28.2755L24.7101 27.9329C24.2669 28.4038 23.8145 28.8578 23.3541 29.2951L23.6984 29.6576ZM26.3698 26.8179L26.7528 27.1394C27.1726 26.6392 27.5825 26.1222 27.9812 25.5881L27.5805 25.289L27.1798 24.99C26.7926 25.5086 26.3946 26.0107 25.9869 26.4965L26.3698 26.8179ZM28.702 23.6937L29.1191 23.9695C29.4788 23.4256 29.8272 22.8656 30.1632 22.2892L29.7313 22.0373L29.2994 21.7855C28.9728 22.3456 28.6344 22.8896 28.285 23.4179L28.702 23.6937ZM30.6662 20.3259L31.1115 20.5533C31.4076 19.9736 31.6916 19.3787 31.9627 18.7682L31.5057 18.5653L31.0487 18.3624C30.785 18.9563 30.5088 19.5348 30.2209 20.0984L30.6662 20.3259ZM32.2498 16.7616L32.7169 16.9401C32.9491 16.3326 33.1688 15.7109 33.3753 15.0747L32.8997 14.9203L32.4242 14.7659C32.2229 15.3859 32.0088 15.9916 31.7828 16.5832L32.2498 16.7616ZM33.4573 13.0463L33.9399 13.1772C34.1091 12.5529 34.2661 11.9158 34.4102 11.2655L33.922 11.1573L33.4339 11.0492C33.2931 11.6844 33.1399 12.3064 32.9747 12.9155L33.4573 13.0463ZM34.3002 9.24856L34.7927 9.33488C34.9044 8.69764 35.0041 8.04856 35.0913 7.38744L34.5956 7.32204L34.0999 7.25665C34.0145 7.90393 33.9169 8.53906 33.8077 9.16223L34.3002 9.24856ZM34.8119 5.37936L35.3098 5.42478C35.3687 4.77907 35.4161 4.1225 35.4515 3.45494L34.9522 3.42848L34.4529 3.40201C34.4181 4.0571 34.3717 4.70102 34.314 5.33395L34.8119 5.37936ZM35.02 1.48913L35.5199 1.49781C35.5257 1.16777 35.5286 0.835172 35.5286 0.5H35.0286H34.5286C34.5286 0.829429 34.5257 1.15624 34.5201 1.48045L35.02 1.48913Z" fill="#3C3C3C"/>
</svg>
