<svg width="22" height="28" viewBox="0 0 22 28" fill="none" xmlns="http://www.w3.org/2000/svg">
<path d="M19.36 12.25C19.7267 12.25 20.0704 12.3184 20.3913 12.4551C20.7121 12.5918 20.9917 12.7786 21.23 13.0156C21.4683 13.2526 21.6562 13.5306 21.7938 13.8496C21.9312 14.1686 22 14.5104 22 14.875V20.125C22 21.2096 21.7938 22.2305 21.3813 23.1875C20.9688 24.1445 20.4004 24.9785 19.6763 25.6895C18.9521 26.4004 18.1133 26.9609 17.16 27.3711C16.2067 27.7812 15.18 27.9909 14.08 28C12.76 28 11.5317 27.7493 10.395 27.248C9.25833 26.7467 8.2225 26.0358 7.2875 25.1152L0.7975 18.6621C0.540833 18.4069 0.34375 18.1107 0.20625 17.7734C0.06875 17.4362 0 17.0898 0 16.7344C0 16.3516 0.0733333 15.9961 0.22 15.668C0.366667 15.3398 0.56375 15.0482 0.81125 14.793C1.05875 14.5378 1.3475 14.3464 1.6775 14.2188C2.0075 14.0911 2.365 14.0182 2.75 14C3.50167 14 4.14792 14.2689 4.68875 14.8066L6.16 16.2559V11.6621C5.61917 11.4069 5.13333 11.0879 4.7025 10.7051C4.27167 10.3223 3.905 9.88932 3.6025 9.40625C3.3 8.92318 3.06167 8.40365 2.8875 7.84766C2.71333 7.29167 2.63083 6.71745 2.64 6.125C2.64 5.27734 2.80042 4.48438 3.12125 3.74609C3.44208 3.00781 3.88208 2.35612 4.44125 1.79102C5.00042 1.22591 5.65125 0.788411 6.39375 0.478516C7.13625 0.16862 7.93833 0.00911458 8.8 0C9.6525 0 10.45 0.159505 11.1925 0.478516C11.935 0.797526 12.5904 1.23503 13.1587 1.79102C13.7271 2.34701 14.1671 2.99414 14.4788 3.73242C14.7904 4.4707 14.9508 5.26823 14.96 6.125C14.96 6.97266 14.7904 7.78385 14.4513 8.55859C14.1121 9.33333 13.6308 10.0124 13.0075 10.5957C13.3283 10.6777 13.6171 10.8145 13.8737 11.0059C14.1304 11.1973 14.355 11.4342 14.5475 11.7168C14.96 11.4889 15.3908 11.375 15.84 11.375C16.2983 11.375 16.7246 11.4798 17.1187 11.6895C17.5129 11.8991 17.8292 12.1999 18.0675 12.5918C18.48 12.3639 18.9108 12.25 19.36 12.25ZM4.4 6.125C4.4 6.80859 4.55583 7.46029 4.8675 8.08008C5.17917 8.69987 5.61 9.21484 6.16 9.625V6.125C6.16 5.76042 6.22875 5.41862 6.36625 5.09961C6.50375 4.7806 6.69167 4.5026 6.93 4.26562C7.16833 4.02865 7.44792 3.8418 7.76875 3.70508C8.08958 3.56836 8.43333 3.5 8.8 3.5C9.16667 3.5 9.51042 3.56836 9.83125 3.70508C10.1521 3.8418 10.4317 4.02865 10.67 4.26562C10.9083 4.5026 11.0962 4.7806 11.2338 5.09961C11.3713 5.41862 11.44 5.76042 11.44 6.125V9.625C11.99 9.21484 12.4208 8.69987 12.7325 8.08008C13.0442 7.46029 13.2 6.80859 13.2 6.125C13.2 5.52344 13.0854 4.95833 12.8562 4.42969C12.6271 3.90104 12.3108 3.44076 11.9075 3.04883C11.5042 2.6569 11.0367 2.34245 10.505 2.10547C9.97333 1.86849 9.405 1.75 8.8 1.75C8.195 1.75 7.62667 1.86393 7.095 2.0918C6.56333 2.31966 6.09583 2.63411 5.6925 3.03516C5.28917 3.4362 4.97292 3.90104 4.74375 4.42969C4.51458 4.95833 4.4 5.52344 4.4 6.125ZM20.24 14.875C20.24 14.638 20.1529 14.4329 19.9788 14.2598C19.8046 14.0866 19.5983 14 19.36 14C19.0483 14 18.8329 14.0866 18.7138 14.2598C18.5946 14.4329 18.5212 14.6471 18.4937 14.9023C18.4662 15.1576 18.4617 15.4401 18.48 15.75C18.4983 16.0599 18.4983 16.3379 18.48 16.584C18.4617 16.8301 18.3883 17.0488 18.26 17.2402C18.1317 17.4316 17.9117 17.5182 17.6 17.5C17.2608 17.5 17.0317 17.3952 16.9125 17.1855C16.7933 16.9759 16.72 16.7025 16.6925 16.3652C16.665 16.028 16.6742 15.6771 16.72 15.3125C16.7658 14.9479 16.775 14.597 16.7475 14.2598C16.72 13.9225 16.6513 13.6536 16.5413 13.4531C16.4312 13.2526 16.1975 13.1432 15.84 13.125C15.5283 13.125 15.3129 13.2116 15.1938 13.3848C15.0746 13.5579 15.0013 13.7721 14.9738 14.0273C14.9462 14.2826 14.9417 14.5651 14.96 14.875C14.9783 15.1849 14.9783 15.4629 14.96 15.709C14.9417 15.9551 14.8683 16.1738 14.74 16.3652C14.6117 16.5566 14.3917 16.6432 14.08 16.625C13.7408 16.625 13.5117 16.5202 13.3925 16.3105C13.2733 16.1009 13.2 15.8275 13.1725 15.4902C13.145 15.153 13.1542 14.8021 13.2 14.4375C13.2458 14.0729 13.255 13.722 13.2275 13.3848C13.2 13.0475 13.1313 12.7786 13.0212 12.5781C12.9113 12.3776 12.6775 12.2682 12.32 12.25C12.0083 12.25 11.7929 12.3366 11.6737 12.5098C11.5546 12.6829 11.4812 12.8971 11.4537 13.1523C11.4262 13.4076 11.4217 13.6901 11.44 14C11.4583 14.3099 11.4583 14.5879 11.44 14.834C11.4217 15.0801 11.3483 15.2988 11.22 15.4902C11.0917 15.6816 10.8717 15.7682 10.56 15.75C10.3217 15.75 10.1154 15.6634 9.94125 15.4902C9.76708 15.3171 9.68 15.112 9.68 14.875V6.125C9.68 5.88802 9.59292 5.68294 9.41875 5.50977C9.24458 5.33659 9.03833 5.25 8.8 5.25C8.56167 5.25 8.35542 5.33659 8.18125 5.50977C8.00708 5.68294 7.92 5.88802 7.92 6.125V16.8848C7.92 17.0944 7.88333 17.2858 7.81 17.459C7.73667 17.6322 7.63125 17.7917 7.49375 17.9375C7.35625 18.0833 7.19583 18.1882 7.0125 18.252C6.82917 18.3158 6.63667 18.3568 6.435 18.375C6.23333 18.375 6.04083 18.3385 5.8575 18.2656C5.67417 18.1927 5.50458 18.0833 5.34875 17.9375L3.4375 16.0371C3.245 15.8457 3.01583 15.75 2.75 15.75C2.48417 15.75 2.255 15.8457 2.0625 16.0371C1.87 16.2285 1.76917 16.4609 1.76 16.7344C1.76 16.9987 1.85625 17.2266 2.04875 17.418L8.53875 23.8848C9.30875 24.6504 10.1521 25.2337 11.0688 25.6348C11.9854 26.0358 12.9892 26.2409 14.08 26.25C14.9325 26.25 15.73 26.0905 16.4725 25.7715C17.215 25.4525 17.8658 25.015 18.425 24.459C18.9842 23.903 19.4242 23.2559 19.745 22.5176C20.0658 21.7793 20.2308 20.9818 20.24 20.125V14.875Z" fill="#7E3500"/>
</svg>
